<?xml version="1.0" encoding="UTF-8" standalone="no"?>
<!DOCTYPE svg PUBLIC "-//W3C//DTD SVG 1.1//EN" "http://www.w3.org/Graphics/SVG/1.1/DTD/svg11.dtd">
<svg width="100%" height="100%" viewBox="0 0 1219 276" version="1.1" xmlns="http://www.w3.org/2000/svg" xmlns:xlink="http://www.w3.org/1999/xlink" xml:space="preserve" xmlns:serif="http://www.serif.com/" style="fill-rule:evenodd;clip-rule:evenodd;stroke-linejoin:round;stroke-miterlimit:2;">
    <g transform="matrix(22.5816,0,0,21.8915,-3429.95,-10450)">
        <g id="inscripcion">
            <g>
                <g>
                    <g>
                        <g transform="matrix(12,0,0,12,151.192,487.447)">
                            <path d="M0.396,-0.026C0.381,-0.015 0.362,-0.006 0.34,-0.001C0.317,0.005 0.294,0.008 0.27,0.008C0.205,0.008 0.156,-0.008 0.121,-0.041C0.086,-0.074 0.069,-0.122 0.069,-0.185L0.069,-0.657L0.225,-0.657L0.225,-0.526L0.358,-0.526L0.358,-0.406L0.225,-0.406L0.225,-0.187C0.225,-0.164 0.231,-0.147 0.242,-0.135C0.253,-0.122 0.27,-0.116 0.291,-0.116C0.315,-0.116 0.336,-0.123 0.355,-0.136L0.396,-0.026Z" style="fill:rgb(0,200,83);fill-rule:nonzero;"/>
                        </g>
                        <g transform="matrix(12,0,0,12,156.136,487.447)">
                            <path d="M0.221,-0.467C0.24,-0.493 0.265,-0.513 0.297,-0.526C0.328,-0.539 0.365,-0.546 0.406,-0.546L0.406,-0.402C0.389,-0.403 0.377,-0.404 0.371,-0.404C0.326,-0.404 0.291,-0.392 0.266,-0.367C0.241,-0.341 0.228,-0.304 0.228,-0.254L0.228,0L0.072,0L0.072,-0.538L0.221,-0.538L0.221,-0.467Z" style="fill:rgb(0,200,83);fill-rule:nonzero;"/>
                        </g>
                        <g transform="matrix(12,0,0,12,161.308,487.447)">
                            <path d="M0.614,-0.538L0.614,0L0.466,0L0.466,-0.064C0.445,-0.041 0.421,-0.023 0.392,-0.011C0.363,0.002 0.332,0.008 0.299,0.008C0.228,0.008 0.172,-0.012 0.131,-0.053C0.09,-0.094 0.069,-0.154 0.069,-0.234L0.069,-0.538L0.225,-0.538L0.225,-0.257C0.225,-0.17 0.261,-0.127 0.334,-0.127C0.371,-0.127 0.401,-0.139 0.424,-0.164C0.447,-0.188 0.458,-0.224 0.458,-0.272L0.458,-0.538L0.614,-0.538Z" style="fill:rgb(0,200,83);fill-rule:nonzero;"/>
                        </g>
                        <g transform="matrix(12,0,0,12,169.552,487.447)">
                            <path d="M0.399,-0.546C0.466,-0.546 0.52,-0.526 0.561,-0.486C0.602,-0.446 0.622,-0.387 0.622,-0.308L0.622,0L0.466,0L0.466,-0.284C0.466,-0.327 0.457,-0.359 0.438,-0.38C0.419,-0.401 0.392,-0.411 0.357,-0.411C0.318,-0.411 0.286,-0.399 0.263,-0.375C0.24,-0.35 0.228,-0.314 0.228,-0.266L0.228,0L0.072,0L0.072,-0.538L0.221,-0.538L0.221,-0.475C0.242,-0.498 0.267,-0.515 0.298,-0.528C0.329,-0.54 0.362,-0.546 0.399,-0.546Z" style="fill:rgb(0,200,83);fill-rule:nonzero;"/>
                        </g>
                        <g transform="matrix(12,0,0,12,177.916,487.447)">
                            <path d="M0.618,-0.538L0.618,0L0.469,0L0.469,-0.062C0.43,-0.015 0.374,0.008 0.301,0.008C0.25,0.008 0.205,-0.003 0.164,-0.026C0.123,-0.049 0.09,-0.081 0.067,-0.123C0.044,-0.165 0.032,-0.214 0.032,-0.269C0.032,-0.324 0.044,-0.373 0.067,-0.415C0.09,-0.457 0.123,-0.489 0.164,-0.512C0.205,-0.535 0.25,-0.546 0.301,-0.546C0.37,-0.546 0.423,-0.524 0.462,-0.481L0.462,-0.538L0.618,-0.538ZM0.328,-0.12C0.367,-0.12 0.4,-0.133 0.426,-0.161C0.452,-0.188 0.465,-0.224 0.465,-0.269C0.465,-0.314 0.452,-0.351 0.426,-0.378C0.4,-0.405 0.367,-0.418 0.328,-0.418C0.288,-0.418 0.255,-0.405 0.229,-0.378C0.203,-0.351 0.19,-0.314 0.19,-0.269C0.19,-0.224 0.203,-0.188 0.229,-0.161C0.255,-0.133 0.288,-0.12 0.328,-0.12Z" style="fill:rgb(0,200,83);fill-rule:nonzero;"/>
                        </g>
                        <g transform="matrix(12,0,0,12,186.196,487.447)">
                            <path d="M0.39,-0.546C0.44,-0.546 0.486,-0.535 0.527,-0.512C0.568,-0.489 0.6,-0.456 0.623,-0.415C0.646,-0.373 0.658,-0.324 0.658,-0.269C0.658,-0.214 0.646,-0.165 0.623,-0.124C0.6,-0.082 0.568,-0.049 0.527,-0.027C0.486,-0.003 0.44,0.008 0.39,0.008C0.316,0.008 0.26,-0.015 0.221,-0.062L0.221,0L0.072,0L0.072,-0.742L0.228,-0.742L0.228,-0.481C0.267,-0.524 0.321,-0.546 0.39,-0.546ZM0.363,-0.12C0.403,-0.12 0.436,-0.133 0.462,-0.161C0.487,-0.188 0.5,-0.224 0.5,-0.269C0.5,-0.314 0.487,-0.351 0.462,-0.378C0.436,-0.405 0.403,-0.418 0.363,-0.418C0.323,-0.418 0.29,-0.405 0.265,-0.378C0.239,-0.351 0.226,-0.314 0.226,-0.269C0.226,-0.224 0.239,-0.188 0.265,-0.161C0.29,-0.133 0.323,-0.12 0.363,-0.12Z" style="fill:rgb(0,200,83);fill-rule:nonzero;"/>
                        </g>
                        <g transform="matrix(12,0,0,12,194.476,487.447)">
                            <path d="M0.265,0.008C0.204,0.008 0.157,-0.008 0.123,-0.041C0.089,-0.073 0.072,-0.119 0.072,-0.178L0.072,-0.742L0.228,-0.742L0.228,-0.187C0.228,-0.164 0.234,-0.147 0.246,-0.135C0.257,-0.122 0.274,-0.116 0.295,-0.116C0.303,-0.116 0.311,-0.117 0.32,-0.119C0.328,-0.121 0.334,-0.123 0.339,-0.126L0.346,-0.005C0.32,0.004 0.293,0.008 0.265,0.008Z" style="fill:rgb(0,200,83);fill-rule:nonzero;"/>
                        </g>
                        <g transform="matrix(12,0,0,12,198.568,487.447)">
                            <path d="M0.343,-0.117C0.371,-0.117 0.396,-0.121 0.418,-0.13C0.439,-0.138 0.459,-0.151 0.478,-0.169L0.561,-0.079C0.51,-0.021 0.436,0.008 0.339,0.008C0.278,0.008 0.225,-0.004 0.178,-0.028C0.131,-0.051 0.095,-0.084 0.07,-0.126C0.045,-0.168 0.032,-0.216 0.032,-0.269C0.032,-0.322 0.045,-0.369 0.07,-0.412C0.094,-0.454 0.129,-0.487 0.173,-0.511C0.216,-0.534 0.265,-0.546 0.32,-0.546C0.371,-0.546 0.418,-0.535 0.46,-0.514C0.502,-0.492 0.536,-0.46 0.561,-0.42C0.586,-0.379 0.598,-0.33 0.598,-0.274L0.2,-0.197C0.211,-0.17 0.229,-0.15 0.254,-0.137C0.278,-0.124 0.308,-0.117 0.343,-0.117ZM0.32,-0.428C0.281,-0.428 0.249,-0.415 0.224,-0.39C0.199,-0.365 0.186,-0.33 0.185,-0.285L0.447,-0.336C0.44,-0.364 0.425,-0.386 0.402,-0.403C0.379,-0.42 0.352,-0.428 0.32,-0.428Z" style="fill:rgb(0,200,83);fill-rule:nonzero;"/>
                        </g>
                    </g>
                </g>
            </g>
        </g>
    </g>
</svg>
